<svg xmlns="http://www.w3.org/2000/svg" xmlns:xlink="http://www.w3.org/1999/xlink" width="940" height="537.62"><rect width="940" height="537.62" rx="5" ry="5" class="a"/><svg y="0%" x="0%"><circle cx="20" cy="20" r="6" fill="#ff5f58"/><circle cx="40" cy="20" r="6" fill="#ffbd2e"/><circle cx="60" cy="20" r="6" fill="#18c132"/></svg><svg height="477.62" viewBox="0 0 90 47.762" width="900" x="15" xmlns="http://www.w3.org/2000/svg" xmlns:xlink="http://www.w3.org/1999/xlink" y="50"><style>@keyframes p{0%{transform:translateX(0)}.7%{transform:translateX(-90px)}1.4%{transform:translateX(-180px)}2.2%{transform:translateX(-270px)}2.9%{transform:translateX(-360px)}3.7%{transform:translateX(-450px)}4.4%{transform:translateX(-540px)}5.1%{transform:translateX(-630px)}5.9%{transform:translateX(-720px)}6.6%{transform:translateX(-810px)}7.4%{transform:translateX(-900px)}8.1%{transform:translateX(-990px)}8.8%{transform:translateX(-1080px)}9.6%{transform:translateX(-1170px)}10.3%{transform:translateX(-1260px)}13.6%{transform:translateX(-1350px)}22%{transform:translateX(-1530px)}23.1%{transform:translateX(-1710px)}to{transform:translateX(-1800px)}}.a{fill:#282d35}.f,.g{fill:#a8cc8c;white-space:pre}.g{fill:#71bef2}.g,.h{font-weight:700}.h,.i,.j,.k{fill:#b9c0cb;white-space:pre}.j,.k{fill:#e88388}.k{fill:#dbab79}</style><g font-family="Monaco,Consolas,Menlo,'Bitstream Vera Sans Mono','Powerline Symbols',monospace" font-size="1.67"><defs><symbol id="1"><text y="1.67" class="f">┌──(</text><text x="4.008" y="1.67" class="g">zehina㉿kali</text><text x="15.03" y="1.67" class="f">)-[</text><text x="18.036" y="1.67" class="h">~/Webtoon-Downloader</text><text x="38.076" y="1.67" class="f">]</text></symbol><symbol id="2"><text y="1.67" class="f">└─</text><text x="2.004" y="1.67" class="g">$</text><text x="4.008" y="1.67" class="i">python3</text><text x="12.024" y="1.67" class="i">src/webtoon_downloader.py</text></symbol><symbol id="3"><text y="1.67" class="f">└─</text><text x="2.004" y="1.67" class="g">$</text><text x="4.008" y="1.67" class="i">python3</text><text x="12.024" y="1.67" class="i">src/webtoon_downloader.py</text><text x="38.076" y="1.67" class="i">--h</text></symbol><symbol id="4"><text y="1.67" class="i">Usage:</text><text x="7.014" y="1.67" class="i">webtoon_downloader.py</text><text x="29.058" y="1.67" class="h">[</text><text x="30.06" y="1.67" class="i">-h|--help</text><text x="39.078" y="1.67" class="h">]</text><text x="41.082" y="1.67" class="h">[</text><text x="42.084" y="1.67" class="i">-s|--start</text><text x="52.104" y="1.67" class="h">]</text><text x="54.108" y="1.67" class="h">[</text><text x="55.11" y="1.67" class="i">-e|--end</text><text x="63.126" y="1.67" class="h">]</text><text x="65.13" y="1.67" class="h">[</text><text x="66.132" y="1.67" class="i">-d|--dest</text><text x="75.15" y="1.67" class="h">]</text></symbol><symbol id="5"><text x="29.058" y="1.67" class="h">[</text><text x="30.06" y="1.67" class="i">--images-format</text><text x="45.09" y="1.67" class="h">]</text><text x="47.094" y="1.67" class="h">[</text><text x="48.096" y="1.67" class="i">--seperate</text><text x="58.116" y="1.67" class="h">]</text><text x="60.12" y="1.67" class="h">[</text><text x="61.122" y="1.67" class="i">--readme|-r</text><text x="72.144" y="1.67" class="h">]</text><text x="74.148" y="1.67" class="i">url</text></symbol><symbol id="6"><text y="1.67" class="i">Positionals:</text></symbol><symbol id="7"><text x="2.004" y="1.67" class="j">url</text><text x="21.042" y="1.67" class="i">webtoon</text><text x="29.058" y="1.67" class="i">url</text><text x="33.066" y="1.67" class="i">of</text><text x="36.072" y="1.67" class="i">the</text><text x="40.08" y="1.67" class="i">title</text><text x="46.092" y="1.67" class="i">to</text><text x="49.098" y="1.67" class="i">download</text></symbol><symbol id="8"><text y="1.67" class="i">Options:</text></symbol><symbol id="9"><text x="2.004" y="1.67" class="k">-h</text><text x="4.008" y="1.67" class="i">,</text><text x="6.012" y="1.67" class="k">--help</text><text x="21.042" y="1.67" class="i">show</text><text x="26.052" y="1.67" class="i">this</text><text x="31.062" y="1.67" class="i">help</text><text x="36.072" y="1.67" class="i">message</text><text x="44.088" y="1.67" class="i">and</text><text x="48.096" y="1.67" class="i">exit</text></symbol><symbol id="10"><text x="2.004" y="1.67" class="k">-s</text><text x="4.008" y="1.67" class="i">,</text><text x="6.012" y="1.67" class="k">--start</text><text x="21.042" y="1.67" class="i">start</text><text x="27.054" y="1.67" class="i">chapter</text><text x="35.07" y="1.67" class="h">(</text><text x="36.072" y="1.67" class="i">default:</text><text x="45.09" y="1.67" style="white-space:pre" fill="#66c2cd" font-weight="700">1</text><text x="46.092" y="1.67" class="h">)</text></symbol><symbol id="11"><text x="2.004" y="1.67" class="k">-e</text><text x="4.008" y="1.67" class="i">,</text><text x="6.012" y="1.67" class="k">--end</text><text x="21.042" y="1.67" class="i">end</text><text x="25.05" y="1.67" class="i">chapter</text><text x="33.066" y="1.67" class="h">(</text><text x="34.068" y="1.67" class="i">default:</text><text x="43.086" y="1.67" style="white-space:pre" fill="#d290e4">None</text><text x="47.094" y="1.67" class="h">)</text></symbol><symbol id="12"><text x="2.004" y="1.67" class="k">-d</text><text x="4.008" y="1.67" class="i">,</text><text x="6.012" y="1.67" class="k">--dest</text><text x="21.042" y="1.67" class="i">download</text><text x="30.06" y="1.67" class="i">parent</text><text x="37.074" y="1.67" class="i">folder</text><text x="44.088" y="1.67" class="i">path</text></symbol><symbol id="13"><text x="2.004" y="1.67" class="k">--images-format</text><text x="21.042" y="1.67" class="i">image</text><text x="27.054" y="1.67" class="i">format</text><text x="34.068" y="1.67" class="i">of</text><text x="37.074" y="1.67" class="i">downloaded</text><text x="48.096" y="1.67" class="i">images,</text><text x="56.112" y="1.67" class="i">available:</text><text x="67.134" y="1.67" class="h">(</text><text x="68.136" y="1.67" class="i">png,</text><text x="73.146" y="1.67" class="i">jpg</text><text x="76.152" y="1.67" class="h">)</text></symbol><symbol id="14"><text x="21.042" y="1.67" class="h">(</text><text x="22.044" y="1.67" class="i">default:</text><text x="31.062" y="1.67" class="f">&apos;jpg&apos;</text><text x="36.072" y="1.67" class="h">)</text></symbol><symbol id="15"><text x="2.004" y="1.67" class="k">--seperate</text><text x="21.042" y="1.67" class="i">download</text><text x="30.06" y="1.67" class="i">each</text><text x="35.07" y="1.67" class="i">chapter</text><text x="43.086" y="1.67" class="i">in</text><text x="46.092" y="1.67" class="i">seperate</text><text x="55.11" y="1.67" class="i">folders</text><text x="63.126" y="1.67" class="h">(</text><text x="64.128" y="1.67" class="i">default:</text><text x="73.146" y="1.67" class="j">False</text><text x="78.156" y="1.67" class="h">)</text></symbol><symbol id="16"><text x="2.004" y="1.67" class="k">--readme</text><text x="10.02" y="1.67" class="i">,</text><text x="12.024" y="1.67" class="k">-r</text><text x="21.042" y="1.67" class="i">displays</text><text x="30.06" y="1.67" class="i">readme</text><text x="37.074" y="1.67" class="i">file</text><text x="42.084" y="1.67" class="i">content</text><text x="50.1" y="1.67" class="i">for</text><text x="54.108" y="1.67" class="i">more</text><text x="59.118" y="1.67" class="i">help</text><text x="64.128" y="1.67" class="i">details</text></symbol><symbol id="17"><text y="1.67" class="f">└─</text><text x="2.004" y="1.67" class="g">$</text></symbol><symbol id="a"><path fill="transparent" d="M0 0h90v23H0z"/></symbol><symbol id="b"><path fill="#6f7683" d="M0 0h1.102v2.171H0z"/></symbol></defs><path class="a" d="M0 0h90v47.762H0z"/><g style="animation-duration:4.313394s;animation-iteration-count:infinite;animation-name:p;animation-timing-function:steps(1,end)"><svg width="1890"><svg><use xlink:href="#a"/><use xlink:href="#b" x="27.996" y="4.317"/><use xlink:href="#1" y="2.171"/><text y="6.012" class="f">└─</text><text x="2.004" y="6.012" class="g">$</text><text x="4.008" y="6.012" class="i">python3</text><text x="12.024" y="6.012" class="i">src/webtoon_down</text></svg><svg x="90"><use xlink:href="#a"/><use xlink:href="#b" x="28.996" y="4.317"/><use xlink:href="#1" y="2.171"/><text y="6.012" class="f">└─</text><text x="2.004" y="6.012" class="g">$</text><text x="4.008" y="6.012" class="i">python3</text><text x="12.024" y="6.012" class="i">src/webtoon_downl</text></svg><svg x="180"><use xlink:href="#a"/><use xlink:href="#b" x="29.996" y="4.317"/><use xlink:href="#1" y="2.171"/><text y="6.012" class="f">└─</text><text x="2.004" y="6.012" class="g">$</text><text x="4.008" y="6.012" class="i">python3</text><text x="12.024" y="6.012" class="i">src/webtoon_downlo</text></svg><svg x="270"><use xlink:href="#a"/><use xlink:href="#b" x="30.996" y="4.317"/><use xlink:href="#1" y="2.171"/><text y="6.012" class="f">└─</text><text x="2.004" y="6.012" class="g">$</text><text x="4.008" y="6.012" class="i">python3</text><text x="12.024" y="6.012" class="i">src/webtoon_downloa</text></svg><svg x="360"><use xlink:href="#a"/><use xlink:href="#b" x="31.996" y="4.317"/><use xlink:href="#1" y="2.171"/><text y="6.012" class="f">└─</text><text x="2.004" y="6.012" class="g">$</text><text x="4.008" y="6.012" class="i">python3</text><text x="12.024" y="6.012" class="i">src/webtoon_download</text></svg><svg x="450"><use xlink:href="#a"/><use xlink:href="#b" x="32.996" y="4.317"/><use xlink:href="#1" y="2.171"/><text y="6.012" class="f">└─</text><text x="2.004" y="6.012" class="g">$</text><text x="4.008" y="6.012" class="i">python3</text><text x="12.024" y="6.012" class="i">src/webtoon_downloade</text></svg><svg x="540"><use xlink:href="#a"/><use xlink:href="#b" x="33.996" y="4.317"/><use xlink:href="#1" y="2.171"/><text y="6.012" class="f">└─</text><text x="2.004" y="6.012" class="g">$</text><text x="4.008" y="6.012" class="i">python3</text><text x="12.024" y="6.012" class="i">src/webtoon_downloader</text></svg><svg x="630"><use xlink:href="#a"/><use xlink:href="#b" x="34.996" y="4.317"/><use xlink:href="#1" y="2.171"/><text y="6.012" class="f">└─</text><text x="2.004" y="6.012" class="g">$</text><text x="4.008" y="6.012" class="i">python3</text><text x="12.024" y="6.012" class="i">src/webtoon_downloader.</text></svg><svg x="720"><use xlink:href="#a"/><use xlink:href="#b" x="35.996" y="4.317"/><use xlink:href="#1" y="2.171"/><text y="6.012" class="f">└─</text><text x="2.004" y="6.012" class="g">$</text><text x="4.008" y="6.012" class="i">python3</text><text x="12.024" y="6.012" class="i">src/webtoon_downloader.p</text></svg><svg x="810"><use xlink:href="#a"/><use xlink:href="#b" x="36.996" y="4.317"/><use xlink:href="#1" y="2.171"/><use xlink:href="#2" y="4.342"/></svg><svg x="900"><use xlink:href="#a"/><use xlink:href="#b" x="37.996" y="4.317"/><use xlink:href="#1" y="2.171"/><use xlink:href="#2" y="4.342"/></svg><svg x="990"><use xlink:href="#a"/><use xlink:href="#b" x="38.996" y="4.317"/><use xlink:href="#1" y="2.171"/><text y="6.012" class="f">└─</text><text x="2.004" y="6.012" class="g">$</text><text x="4.008" y="6.012" class="i">python3</text><text x="12.024" y="6.012" class="i">src/webtoon_downloader.py</text><text x="38.076" y="6.012" class="i">-</text></svg><svg x="1080"><use xlink:href="#a"/><use xlink:href="#b" x="39.996" y="4.317"/><use xlink:href="#1" y="2.171"/><text y="6.012" class="f">└─</text><text x="2.004" y="6.012" class="g">$</text><text x="4.008" y="6.012" class="i">python3</text><text x="12.024" y="6.012" class="i">src/webtoon_downloader.py</text><text x="38.076" y="6.012" class="i">--</text></svg><svg x="1170"><use xlink:href="#a"/><use xlink:href="#b" x="40.996" y="4.317"/><use xlink:href="#1" y="2.171"/><use xlink:href="#3" y="4.342"/></svg><svg x="1260"><use xlink:href="#a"/><use xlink:href="#b" x="41.996" y="4.317"/><use xlink:href="#1" y="2.171"/><use xlink:href="#3" y="4.342"/></svg><svg x="1350"><use xlink:href="#a"/><use xlink:href="#b" x="-.004" y="6.488"/><use xlink:href="#1" y="2.171"/><use xlink:href="#3" y="4.342"/></svg><svg x="1440"><use xlink:href="#a"/><use xlink:href="#b" x="26.996" y="36.882"/><use xlink:href="#1" y="2.171"/><use xlink:href="#3" y="4.342"/><use xlink:href="#4" y="6.513"/><use xlink:href="#5" y="8.684"/><use xlink:href="#6" y="13.026"/><use xlink:href="#7" y="15.197"/><use xlink:href="#8" y="19.539"/><use xlink:href="#9" y="21.71"/><use xlink:href="#10" y="23.881"/><use xlink:href="#11" y="26.052"/><use xlink:href="#12" y="28.223"/><use xlink:href="#13" y="30.394"/><use xlink:href="#14" y="32.565"/><use xlink:href="#15" y="34.736"/><text x="2.004" y="38.577" class="k">--readme</text><text x="10.02" y="38.577" class="i">,</text><text x="12.024" y="38.577" class="k">-r</text><text x="21.042" y="38.577" class="i">displa</text></svg><svg x="1530"><use xlink:href="#a"/><use xlink:href="#b" x="-.004" y="41.224"/><use xlink:href="#1" y="2.171"/><use xlink:href="#3" y="4.342"/><use xlink:href="#4" y="6.513"/><use xlink:href="#5" y="8.684"/><use xlink:href="#6" y="13.026"/><use xlink:href="#7" y="15.197"/><use xlink:href="#8" y="19.539"/><use xlink:href="#9" y="21.71"/><use xlink:href="#10" y="23.881"/><use xlink:href="#11" y="26.052"/><use xlink:href="#12" y="28.223"/><use xlink:href="#13" y="30.394"/><use xlink:href="#14" y="32.565"/><use xlink:href="#15" y="34.736"/><use xlink:href="#16" y="36.907"/></svg><svg x="1620"><use xlink:href="#a"/><use xlink:href="#b" x="-.004" y="43.395"/><use xlink:href="#1" y="2.171"/><use xlink:href="#3" y="4.342"/><use xlink:href="#4" y="6.513"/><use xlink:href="#5" y="8.684"/><use xlink:href="#6" y="13.026"/><use xlink:href="#7" y="15.197"/><use xlink:href="#8" y="19.539"/><use xlink:href="#9" y="21.71"/><use xlink:href="#10" y="23.881"/><use xlink:href="#11" y="26.052"/><use xlink:href="#12" y="28.223"/><use xlink:href="#13" y="30.394"/><use xlink:href="#14" y="32.565"/><use xlink:href="#15" y="34.736"/><use xlink:href="#16" y="36.907"/></svg><svg x="1710"><use xlink:href="#a"/><use xlink:href="#b" x="3.996" y="45.566"/><use xlink:href="#1" y="2.171"/><use xlink:href="#3" y="4.342"/><use xlink:href="#4" y="6.513"/><use xlink:href="#5" y="8.684"/><use xlink:href="#6" y="13.026"/><use xlink:href="#7" y="15.197"/><use xlink:href="#8" y="19.539"/><use xlink:href="#9" y="21.71"/><use xlink:href="#10" y="23.881"/><use xlink:href="#11" y="26.052"/><use xlink:href="#12" y="28.223"/><use xlink:href="#13" y="30.394"/><use xlink:href="#14" y="32.565"/><use xlink:href="#15" y="34.736"/><use xlink:href="#16" y="36.907"/><use xlink:href="#1" y="43.42"/><use xlink:href="#17" y="45.591"/></svg><svg x="1800"><use xlink:href="#a"/><use xlink:href="#b" x="-.004" y="47.737"/><use xlink:href="#1"/><use xlink:href="#3" y="2.171"/><use xlink:href="#4" y="4.342"/><use xlink:href="#5" y="6.513"/><use xlink:href="#6" y="10.855"/><use xlink:href="#7" y="13.026"/><use xlink:href="#8" y="17.368"/><use xlink:href="#9" y="19.539"/><use xlink:href="#10" y="21.71"/><use xlink:href="#11" y="23.881"/><use xlink:href="#12" y="26.052"/><use xlink:href="#13" y="28.223"/><use xlink:href="#14" y="30.394"/><use xlink:href="#15" y="32.565"/><use xlink:href="#16" y="34.736"/><use xlink:href="#1" y="41.249"/><use xlink:href="#17" y="43.42"/><text y="47.261" class="i">exit</text></svg></svg></g></g></svg></svg>